<?xml version="1.0" encoding="utf-8"?>
<!-- Generator: Adobe Illustrator 21.0.0, SVG Export Plug-In . SVG Version: 6.00 Build 0)  -->
<svg version="1.1" id="Layer_1" xmlns="http://www.w3.org/2000/svg" xmlns:xlink="http://www.w3.org/1999/xlink" x="0px" y="0px"
	 viewBox="0 0 280 65.2" style="enable-background:new 0 0 280 65.2;" xml:space="preserve">
<style type="text/css">
	.st0{fill:#F47820;}
	.st1{fill:none;}
	.st2{enable-background:new    ;}
	.st3{fill:#FFFFFF;}
</style>
<rect class="st0" width="280" height="65.2"/>
<rect x="71" y="21.2" class="st1" width="349.6" height="88.1"/>
<g class="st2">
	<path class="st3" d="M81.5,27.6c-0.6-0.8-1.3-1.3-2.2-1.7c-0.9-0.3-1.8-0.5-2.6-0.5c-1.1,0-2.1,0.2-3,0.6s-1.7,0.9-2.3,1.6
		c-0.6,0.7-1.1,1.5-1.5,2.4c-0.3,0.9-0.5,1.9-0.5,3c0,1.2,0.2,2.2,0.5,3.2c0.3,1,0.8,1.8,1.4,2.5c0.6,0.7,1.4,1.2,2.2,1.6
		c0.9,0.4,1.9,0.6,2.9,0.6c1.1,0,2.1-0.2,3-0.7c0.9-0.4,1.6-1,2.1-1.8l3,2.1c-0.9,1.2-2.1,2.1-3.4,2.7c-1.3,0.6-2.9,1-4.7,1
		c-1.6,0-3.2-0.3-4.5-0.8s-2.6-1.3-3.6-2.3s-1.8-2.2-2.3-3.5c-0.6-1.4-0.8-2.9-0.8-4.5c0-1.7,0.3-3.2,0.9-4.6
		c0.6-1.4,1.4-2.5,2.4-3.5c1-1,2.2-1.7,3.6-2.2c1.4-0.5,2.9-0.8,4.5-0.8c0.7,0,1.4,0.1,2.1,0.2s1.4,0.3,2.1,0.6s1.3,0.6,1.9,1
		c0.6,0.4,1.1,0.9,1.5,1.4L81.5,27.6z"/>
	<path class="st3" d="M85.7,36.5c0-1.1,0.2-2.2,0.6-3.1s1-1.7,1.7-2.4s1.5-1.2,2.5-1.5c1-0.4,2-0.5,3-0.5c1.1,0,2.1,0.2,3,0.5
		c1,0.4,1.8,0.9,2.5,1.5c0.7,0.7,1.2,1.4,1.7,2.4s0.6,1.9,0.6,3.1s-0.2,2.2-0.6,3.1s-1,1.7-1.7,2.4c-0.7,0.7-1.5,1.2-2.5,1.6
		c-1,0.4-2,0.6-3,0.6c-1.1,0-2.1-0.2-3-0.6c-1-0.4-1.8-0.9-2.5-1.6s-1.2-1.5-1.7-2.4S85.7,37.7,85.7,36.5z M89.3,36.5
		c0,0.6,0.1,1.1,0.3,1.7c0.2,0.6,0.4,1.1,0.8,1.5c0.3,0.4,0.8,0.8,1.3,1.1s1.1,0.4,1.8,0.4c0.7,0,1.3-0.1,1.8-0.4s0.9-0.6,1.3-1.1
		c0.3-0.4,0.6-0.9,0.8-1.5c0.2-0.6,0.3-1.1,0.3-1.7s-0.1-1.1-0.3-1.7c-0.2-0.5-0.4-1-0.8-1.5c-0.3-0.4-0.8-0.8-1.3-1.1
		S94.2,32,93.4,32c-0.7,0-1.3,0.1-1.8,0.4s-0.9,0.6-1.3,1.1c-0.3,0.4-0.6,0.9-0.8,1.5S89.3,36,89.3,36.5z"/>
	<path class="st3" d="M105.2,32.3h-2.7v-2.9h2.7v-2.1c0-0.9,0.1-1.7,0.3-2.5c0.2-0.8,0.5-1.5,1-2.1c0.4-0.6,1-1.1,1.8-1.4
		c0.7-0.3,1.7-0.5,2.8-0.5c0.4,0,0.7,0,1,0c0.3,0,0.5,0.1,0.8,0.2l-0.2,3c-0.2-0.1-0.4-0.1-0.6-0.1c-0.2,0-0.5-0.1-0.7-0.1
		c-0.5,0-0.9,0.1-1.2,0.3c-0.3,0.2-0.6,0.5-0.7,0.8s-0.3,0.7-0.3,1c-0.1,0.4-0.1,0.7-0.1,1.1v2.3h3.3v2.9h-3.3v11.4h-3.6V32.3z"/>
	<path class="st3" d="M114.2,32.3h-2.7v-2.9h2.7v-2.1c0-0.9,0.1-1.7,0.3-2.5c0.2-0.8,0.5-1.5,1-2.1c0.4-0.6,1-1.1,1.8-1.4
		c0.7-0.3,1.7-0.5,2.8-0.5c0.4,0,0.7,0,1,0c0.3,0,0.5,0.1,0.8,0.2l-0.2,3c-0.2-0.1-0.4-0.1-0.6-0.1c-0.2,0-0.5-0.1-0.7-0.1
		c-0.5,0-0.9,0.1-1.2,0.3c-0.3,0.2-0.6,0.5-0.7,0.8s-0.3,0.7-0.3,1c-0.1,0.4-0.1,0.7-0.1,1.1v2.3h3.3v2.9h-3.3v11.4h-3.6V32.3z"/>
	<path class="st3" d="M136.9,36.8c0,0.2,0,0.3,0,0.5c0,0.2,0,0.3,0,0.5H126c0,0.5,0.2,1,0.4,1.4c0.2,0.4,0.5,0.8,0.9,1.1
		c0.4,0.3,0.8,0.5,1.3,0.7c0.5,0.2,1,0.3,1.5,0.3c0.9,0,1.6-0.2,2.3-0.5c0.6-0.3,1.1-0.8,1.5-1.4l2.4,1.9c-1.4,1.9-3.4,2.9-6.1,2.9
		c-1.1,0-2.1-0.2-3.1-0.5c-0.9-0.3-1.7-0.8-2.4-1.5c-0.7-0.6-1.2-1.4-1.6-2.3c-0.4-0.9-0.6-2-0.6-3.1c0-1.1,0.2-2.2,0.6-3.1
		c0.4-0.9,0.9-1.7,1.6-2.4c0.7-0.7,1.5-1.2,2.4-1.5c0.9-0.4,1.9-0.5,3-0.5c1,0,1.9,0.2,2.8,0.5c0.8,0.3,1.6,0.8,2.2,1.5
		s1.1,1.4,1.4,2.4C136.7,34.4,136.9,35.5,136.9,36.8z M133.4,35.2c0-0.5-0.1-0.9-0.2-1.3c-0.1-0.4-0.3-0.8-0.6-1.1
		c-0.3-0.3-0.6-0.6-1.1-0.8c-0.4-0.2-0.9-0.3-1.5-0.3c-1.1,0-2,0.3-2.7,1c-0.7,0.6-1.2,1.5-1.2,2.5H133.4z"/>
	<path class="st3" d="M154,36.8c0,0.2,0,0.3,0,0.5c0,0.2,0,0.3,0,0.5h-10.9c0,0.5,0.2,1,0.4,1.4c0.2,0.4,0.5,0.8,0.9,1.1
		s0.8,0.5,1.3,0.7c0.5,0.2,1,0.3,1.5,0.3c0.9,0,1.6-0.2,2.3-0.5c0.6-0.3,1.1-0.8,1.5-1.4l2.4,1.9c-1.4,1.9-3.4,2.9-6.1,2.9
		c-1.1,0-2.1-0.2-3.1-0.5s-1.7-0.8-2.4-1.5c-0.7-0.6-1.2-1.4-1.6-2.3s-0.6-2-0.6-3.1c0-1.1,0.2-2.2,0.6-3.1c0.4-0.9,0.9-1.7,1.6-2.4
		c0.7-0.7,1.5-1.2,2.4-1.5c0.9-0.4,1.9-0.5,3-0.5c1,0,1.9,0.2,2.8,0.5c0.8,0.3,1.6,0.8,2.2,1.5c0.6,0.6,1.1,1.4,1.4,2.4
		C153.8,34.4,154,35.5,154,36.8z M150.4,35.2c0-0.5-0.1-0.9-0.2-1.3c-0.1-0.4-0.3-0.8-0.6-1.1c-0.3-0.3-0.6-0.6-1.1-0.8
		s-0.9-0.3-1.5-0.3c-1.1,0-2,0.3-2.7,1c-0.7,0.6-1.2,1.5-1.2,2.5H150.4z"/>
	<path class="st3" d="M163.6,37.9h-7.1v-3h7.1V37.9z"/>
	<path class="st3" d="M167.1,22.7h7.3c1,0,2,0.1,2.9,0.3c0.9,0.2,1.8,0.5,2.5,1c0.7,0.5,1.3,1.1,1.7,1.9c0.4,0.8,0.7,1.7,0.7,2.8
		c0,1.5-0.4,2.8-1.3,3.7s-2,1.6-3.5,1.9l5.6,9.3h-4.5l-4.9-8.9h-2.7v8.9h-3.7V22.7z M173.9,31.7c0.5,0,1.1,0,1.6-0.1
		c0.5-0.1,1-0.2,1.4-0.4c0.4-0.2,0.8-0.5,1.1-0.9c0.3-0.4,0.4-0.9,0.4-1.6c0-0.6-0.1-1-0.4-1.4c-0.3-0.4-0.6-0.7-1-0.9
		c-0.4-0.2-0.8-0.4-1.4-0.4c-0.5-0.1-1-0.1-1.5-0.1h-3.4v5.9H173.9z"/>
	<path class="st3" d="M198.9,36.8c0,0.2,0,0.3,0,0.5c0,0.2,0,0.3,0,0.5H188c0,0.5,0.2,1,0.4,1.4c0.2,0.4,0.5,0.8,0.9,1.1
		c0.4,0.3,0.8,0.5,1.3,0.7s1,0.3,1.5,0.3c0.9,0,1.6-0.2,2.3-0.5s1.1-0.8,1.5-1.4l2.4,1.9c-1.4,1.9-3.4,2.9-6.1,2.9
		c-1.1,0-2.1-0.2-3.1-0.5c-0.9-0.3-1.7-0.8-2.4-1.5c-0.7-0.6-1.2-1.4-1.6-2.3s-0.6-2-0.6-3.1c0-1.1,0.2-2.2,0.6-3.1
		c0.4-0.9,0.9-1.7,1.6-2.4c0.7-0.7,1.5-1.2,2.4-1.5c0.9-0.4,1.9-0.5,3-0.5c1,0,1.9,0.2,2.8,0.5s1.6,0.8,2.2,1.5s1.1,1.4,1.4,2.4
		C198.7,34.4,198.9,35.5,198.9,36.8z M195.4,35.2c0-0.5-0.1-0.9-0.2-1.3c-0.1-0.4-0.3-0.8-0.6-1.1c-0.3-0.3-0.6-0.6-1.1-0.8
		c-0.4-0.2-0.9-0.3-1.5-0.3c-1.1,0-2,0.3-2.7,1c-0.7,0.6-1.2,1.5-1.2,2.5H195.4z"/>
	<path class="st3" d="M211.1,41.9L211.1,41.9c-0.4,0.6-1,1.2-1.8,1.6s-1.7,0.6-2.7,0.6c-0.6,0-1.2-0.1-1.8-0.2
		c-0.6-0.1-1.2-0.4-1.7-0.7s-1-0.8-1.3-1.4s-0.5-1.3-0.5-2.1c0-1.1,0.3-1.9,0.9-2.6c0.6-0.6,1.4-1.1,2.3-1.5c1-0.3,2-0.6,3.2-0.7
		c1.2-0.1,2.3-0.2,3.4-0.2v-0.4c0-0.9-0.3-1.6-1-2c-0.6-0.4-1.4-0.6-2.3-0.6c-0.8,0-1.5,0.2-2.2,0.5c-0.7,0.3-1.3,0.7-1.7,1.2
		l-1.8-2.2c0.8-0.8,1.8-1.3,2.8-1.7s2.1-0.6,3.2-0.6c1.3,0,2.3,0.2,3.1,0.5c0.8,0.4,1.5,0.8,1.9,1.4c0.5,0.6,0.8,1.2,1,1.9
		s0.3,1.4,0.3,2.1v8.7h-3.3V41.9z M211,37.2h-0.8c-0.6,0-1.2,0-1.8,0.1c-0.6,0-1.2,0.2-1.8,0.3c-0.5,0.2-1,0.4-1.3,0.7
		c-0.4,0.3-0.5,0.7-0.5,1.3c0,0.3,0.1,0.6,0.2,0.8c0.1,0.2,0.3,0.4,0.6,0.5c0.2,0.1,0.5,0.2,0.8,0.3c0.3,0.1,0.6,0.1,0.9,0.1
		c1.2,0,2.2-0.3,2.8-1c0.6-0.7,1-1.5,1-2.7V37.2z"/>
	<path class="st3" d="M228.3,33.4c-0.3-0.4-0.7-0.7-1.2-1c-0.6-0.3-1.1-0.4-1.7-0.4c-0.7,0-1.2,0.1-1.7,0.4
		c-0.5,0.3-0.9,0.6-1.2,1.1c-0.3,0.4-0.6,0.9-0.7,1.5c-0.2,0.5-0.2,1.1-0.2,1.7s0.1,1.1,0.3,1.7c0.2,0.5,0.4,1,0.8,1.5
		c0.3,0.4,0.8,0.8,1.3,1.1c0.5,0.3,1.1,0.4,1.8,0.4c0.6,0,1.1-0.1,1.7-0.3c0.6-0.2,1-0.5,1.3-1l2.2,2.3c-0.6,0.6-1.4,1.1-2.3,1.5
		c-0.9,0.3-1.9,0.5-3,0.5c-1.1,0-2-0.2-3-0.5c-0.9-0.3-1.8-0.8-2.5-1.5c-0.7-0.7-1.3-1.4-1.7-2.4s-0.6-2-0.6-3.2
		c0-1.1,0.2-2.2,0.6-3.1c0.4-0.9,1-1.7,1.7-2.4s1.5-1.2,2.4-1.5c0.9-0.4,1.9-0.5,3-0.5s2.1,0.2,3,0.6s1.8,0.9,2.3,1.6L228.3,33.4z"
		/>
	<path class="st3" d="M231,32.3v-2.9h2.5v-4.1h3.5v4.1h3.6v2.9H237v6.6c0,0.6,0.1,1.2,0.3,1.6c0.2,0.4,0.7,0.6,1.5,0.6
		c0.2,0,0.5,0,0.8-0.1c0.3,0,0.5-0.1,0.7-0.2l0.1,2.8c-0.3,0.1-0.7,0.2-1.1,0.3c-0.4,0.1-0.9,0.1-1.2,0.1c-1,0-1.7-0.1-2.3-0.4
		s-1.1-0.6-1.4-1.1s-0.6-1-0.7-1.6c-0.1-0.6-0.2-1.3-0.2-1.9v-6.7H231z"/>
	<path class="st3" d="M242.3,36.5c0-1.1,0.2-2.2,0.6-3.1s1-1.7,1.7-2.4s1.5-1.2,2.5-1.5c1-0.4,2-0.5,3-0.5c1.1,0,2.1,0.2,3,0.5
		c1,0.4,1.8,0.9,2.5,1.5c0.7,0.7,1.2,1.4,1.7,2.4s0.6,1.9,0.6,3.1s-0.2,2.2-0.6,3.1s-1,1.7-1.7,2.4c-0.7,0.7-1.5,1.2-2.5,1.6
		c-1,0.4-2,0.6-3,0.6c-1.1,0-2.1-0.2-3-0.6c-1-0.4-1.8-0.9-2.5-1.6s-1.2-1.5-1.7-2.4S242.3,37.7,242.3,36.5z M246,36.5
		c0,0.6,0.1,1.1,0.3,1.7c0.2,0.6,0.4,1.1,0.8,1.5c0.3,0.4,0.8,0.8,1.3,1.1c0.5,0.3,1.1,0.4,1.8,0.4c0.7,0,1.3-0.1,1.8-0.4
		c0.5-0.3,0.9-0.6,1.3-1.1c0.3-0.4,0.6-0.9,0.8-1.5c0.2-0.6,0.3-1.1,0.3-1.7s-0.1-1.1-0.3-1.7c-0.2-0.5-0.4-1-0.8-1.5
		c-0.3-0.4-0.8-0.8-1.3-1.1c-0.5-0.3-1.1-0.4-1.8-0.4c-0.7,0-1.3,0.1-1.8,0.4c-0.5,0.3-0.9,0.6-1.3,1.1c-0.3,0.4-0.6,0.9-0.8,1.5
		C246,35.4,246,36,246,36.5z"/>
	<path class="st3" d="M261.3,29.5h3.4v2.4h0.1c0.4-0.8,1-1.5,1.7-2c0.7-0.5,1.5-0.8,2.5-0.8c0.1,0,0.3,0,0.4,0c0.2,0,0.3,0,0.4,0.1
		v3.3c-0.2-0.1-0.4-0.1-0.6-0.1c-0.2,0-0.3,0-0.5,0c-0.8,0-1.5,0.1-2,0.4c-0.5,0.3-0.9,0.7-1.2,1.1c-0.3,0.4-0.5,0.8-0.6,1.3
		c-0.1,0.4-0.1,0.8-0.1,1v7.6h-3.6V29.5z"/>
</g>
<g>
	<circle class="st3" cx="31.9" cy="31.9" r="11.9"/>
</g>
<g>
	<path class="st3" d="M31.9,52.5c-11.4,0-20.6-9.2-20.6-20.6s9.2-20.6,20.6-20.6s20.6,9.2,20.6,20.6S43.3,52.5,31.9,52.5z
		 M31.9,13.8c-10,0-18.1,8.1-18.1,18.1S21.9,50,31.9,50S50,41.9,50,31.9S41.9,13.8,31.9,13.8z"/>
</g>
</svg>
