<?xml version="1.0" encoding="utf-8"?>
<!-- Generator: Adobe Illustrator 21.0.0, SVG Export Plug-In . SVG Version: 6.00 Build 0)  -->
<svg version="1.1" id="Layer_1" xmlns="http://www.w3.org/2000/svg" xmlns:xlink="http://www.w3.org/1999/xlink" x="0px" y="0px"
	 viewBox="0 0 303.5 94.5" style="enable-background:new 0 0 303.5 94.5;" xml:space="preserve">
<style type="text/css">
	.st0{fill:#F47820;}
	.st1{enable-background:new    ;}
	.st2{fill:#FFFFFF;}
</style>
<rect class="st0" width="303.5" height="94.5"/>
<g class="st1">
	<path class="st2" d="M93.5,44.3c-0.6-0.8-1.3-1.3-2.2-1.7c-0.9-0.3-1.8-0.5-2.6-0.5c-1.1,0-2.1,0.2-3,0.6s-1.7,0.9-2.3,1.6
		c-0.6,0.7-1.1,1.5-1.5,2.4c-0.3,0.9-0.5,1.9-0.5,3c0,1.2,0.2,2.2,0.5,3.2c0.3,1,0.8,1.8,1.4,2.5c0.6,0.7,1.4,1.2,2.2,1.6
		c0.9,0.4,1.9,0.6,2.9,0.6c1.1,0,2.1-0.2,3-0.7c0.9-0.4,1.6-1,2.1-1.8l3,2.1c-0.9,1.2-2.1,2.1-3.4,2.7c-1.3,0.6-2.9,1-4.7,1
		c-1.6,0-3.2-0.3-4.5-0.8s-2.6-1.3-3.6-2.3s-1.8-2.2-2.3-3.5c-0.6-1.4-0.8-2.9-0.8-4.5c0-1.7,0.3-3.2,0.9-4.6
		c0.6-1.4,1.4-2.5,2.4-3.5c1-1,2.2-1.7,3.6-2.2c1.4-0.5,2.9-0.8,4.5-0.8c0.7,0,1.4,0.1,2.1,0.2s1.4,0.3,2.1,0.6s1.3,0.6,1.9,1
		c0.6,0.4,1.1,0.9,1.5,1.4L93.5,44.3z"/>
	<path class="st2" d="M97.7,53.2c0-1.1,0.2-2.2,0.6-3.1s1-1.7,1.7-2.4s1.5-1.2,2.5-1.5c1-0.4,2-0.5,3-0.5c1.1,0,2.1,0.2,3,0.5
		c1,0.4,1.8,0.9,2.5,1.5c0.7,0.7,1.2,1.4,1.7,2.4s0.6,1.9,0.6,3.1s-0.2,2.2-0.6,3.1s-1,1.7-1.7,2.4c-0.7,0.7-1.5,1.2-2.5,1.6
		c-1,0.4-2,0.6-3,0.6c-1.1,0-2.1-0.2-3-0.6c-1-0.4-1.8-0.9-2.5-1.6s-1.2-1.5-1.7-2.4S97.7,54.3,97.7,53.2z M101.3,53.2
		c0,0.6,0.1,1.1,0.3,1.7c0.2,0.6,0.4,1.1,0.8,1.5c0.3,0.4,0.8,0.8,1.3,1.1s1.1,0.4,1.8,0.4c0.7,0,1.3-0.1,1.8-0.4s0.9-0.6,1.3-1.1
		c0.3-0.4,0.6-0.9,0.8-1.5c0.2-0.6,0.3-1.1,0.3-1.7s-0.1-1.1-0.3-1.7c-0.2-0.5-0.4-1-0.8-1.5c-0.3-0.4-0.8-0.8-1.3-1.1
		s-1.1-0.4-1.8-0.4c-0.7,0-1.3,0.1-1.8,0.4s-0.9,0.6-1.3,1.1c-0.3,0.4-0.6,0.9-0.8,1.5S101.3,52.7,101.3,53.2z"/>
	<path class="st2" d="M117.2,49h-2.7v-2.9h2.7V44c0-0.9,0.1-1.7,0.3-2.5c0.2-0.8,0.5-1.5,1-2.1c0.4-0.6,1-1.1,1.8-1.4
		c0.7-0.3,1.7-0.5,2.8-0.5c0.4,0,0.7,0,1,0c0.3,0,0.5,0.1,0.8,0.2l-0.2,3c-0.2-0.1-0.4-0.1-0.6-0.1c-0.2,0-0.5-0.1-0.7-0.1
		c-0.5,0-0.9,0.1-1.2,0.3c-0.3,0.2-0.6,0.5-0.7,0.8s-0.3,0.7-0.3,1c-0.1,0.4-0.1,0.7-0.1,1.1v2.3h3.3V49h-3.3v11.4h-3.6V49z"/>
	<path class="st2" d="M126.2,49h-2.7v-2.9h2.7V44c0-0.9,0.1-1.7,0.3-2.5c0.2-0.8,0.5-1.5,1-2.1c0.4-0.6,1-1.1,1.8-1.4
		c0.7-0.3,1.7-0.5,2.8-0.5c0.4,0,0.7,0,1,0c0.3,0,0.5,0.1,0.8,0.2l-0.2,3c-0.2-0.1-0.4-0.1-0.6-0.1c-0.2,0-0.5-0.1-0.7-0.1
		c-0.5,0-0.9,0.1-1.2,0.3c-0.3,0.2-0.6,0.5-0.7,0.8s-0.3,0.7-0.3,1c-0.1,0.4-0.1,0.7-0.1,1.1v2.3h3.3V49h-3.3v11.4h-3.6V49z"/>
	<path class="st2" d="M148.9,53.5c0,0.2,0,0.3,0,0.5c0,0.2,0,0.3,0,0.5H138c0,0.5,0.2,1,0.4,1.4c0.2,0.4,0.5,0.8,0.9,1.1
		c0.4,0.3,0.8,0.5,1.3,0.7c0.5,0.2,1,0.3,1.5,0.3c0.9,0,1.6-0.2,2.3-0.5c0.6-0.3,1.1-0.8,1.5-1.4l2.4,1.9c-1.4,1.9-3.4,2.9-6.1,2.9
		c-1.1,0-2.1-0.2-3.1-0.5c-0.9-0.3-1.7-0.8-2.4-1.5c-0.7-0.6-1.2-1.4-1.6-2.3c-0.4-0.9-0.6-2-0.6-3.1c0-1.1,0.2-2.2,0.6-3.1
		c0.4-0.9,0.9-1.7,1.6-2.4c0.7-0.7,1.5-1.2,2.4-1.5c0.9-0.4,1.9-0.5,3-0.5c1,0,1.9,0.2,2.8,0.5c0.8,0.3,1.6,0.8,2.2,1.5
		s1.1,1.4,1.4,2.4C148.7,51,148.9,52.2,148.9,53.5z M145.4,51.8c0-0.5-0.1-0.9-0.2-1.3c-0.1-0.4-0.3-0.8-0.6-1.1
		c-0.3-0.3-0.6-0.6-1.1-0.8c-0.4-0.2-0.9-0.3-1.5-0.3c-1.1,0-2,0.3-2.7,1c-0.7,0.6-1.2,1.5-1.2,2.5H145.4z"/>
	<path class="st2" d="M166,53.5c0,0.2,0,0.3,0,0.5c0,0.2,0,0.3,0,0.5h-10.9c0,0.5,0.2,1,0.4,1.4c0.2,0.4,0.5,0.8,0.9,1.1
		s0.8,0.5,1.3,0.7c0.5,0.2,1,0.3,1.5,0.3c0.9,0,1.6-0.2,2.3-0.5c0.6-0.3,1.1-0.8,1.5-1.4l2.4,1.9c-1.4,1.9-3.4,2.9-6.1,2.9
		c-1.1,0-2.1-0.2-3.1-0.5s-1.7-0.8-2.4-1.5c-0.7-0.6-1.2-1.4-1.6-2.3s-0.6-2-0.6-3.1c0-1.1,0.2-2.2,0.6-3.1c0.4-0.9,0.9-1.7,1.6-2.4
		c0.7-0.7,1.5-1.2,2.4-1.5c0.9-0.4,1.9-0.5,3-0.5c1,0,1.9,0.2,2.8,0.5c0.8,0.3,1.6,0.8,2.2,1.5c0.6,0.6,1.1,1.4,1.4,2.4
		C165.8,51,166,52.2,166,53.5z M162.4,51.8c0-0.5-0.1-0.9-0.2-1.3c-0.1-0.4-0.3-0.8-0.6-1.1c-0.3-0.3-0.6-0.6-1.1-0.8
		s-0.9-0.3-1.5-0.3c-1.1,0-2,0.3-2.7,1c-0.7,0.6-1.2,1.5-1.2,2.5H162.4z"/>
	<path class="st2" d="M175.6,54.6h-7.1v-3h7.1V54.6z"/>
	<path class="st2" d="M179.1,39.4h7.3c1,0,2,0.1,2.9,0.3c0.9,0.2,1.8,0.5,2.5,1c0.7,0.5,1.3,1.1,1.7,1.9c0.4,0.8,0.7,1.7,0.7,2.8
		c0,1.5-0.4,2.8-1.3,3.7s-2,1.6-3.5,1.9l5.6,9.3h-4.5l-4.9-8.9h-2.7v8.9h-3.7V39.4z M185.9,48.4c0.5,0,1.1,0,1.6-0.1
		c0.5-0.1,1-0.2,1.4-0.4c0.4-0.2,0.8-0.5,1.1-0.9c0.3-0.4,0.4-0.9,0.4-1.6c0-0.6-0.1-1-0.4-1.4c-0.3-0.4-0.6-0.7-1-0.9
		c-0.4-0.2-0.8-0.4-1.4-0.4c-0.5-0.1-1-0.1-1.5-0.1h-3.4v5.9H185.9z"/>
	<path class="st2" d="M210.9,53.5c0,0.2,0,0.3,0,0.5c0,0.2,0,0.3,0,0.5H200c0,0.5,0.2,1,0.4,1.4c0.2,0.4,0.5,0.8,0.9,1.1
		c0.4,0.3,0.8,0.5,1.3,0.7s1,0.3,1.5,0.3c0.9,0,1.6-0.2,2.3-0.5s1.1-0.8,1.5-1.4l2.4,1.9c-1.4,1.9-3.4,2.9-6.1,2.9
		c-1.1,0-2.1-0.2-3.1-0.5c-0.9-0.3-1.7-0.8-2.4-1.5c-0.7-0.6-1.2-1.4-1.6-2.3s-0.6-2-0.6-3.1c0-1.1,0.2-2.2,0.6-3.1
		c0.4-0.9,0.9-1.7,1.6-2.4c0.7-0.7,1.5-1.2,2.4-1.5c0.9-0.4,1.9-0.5,3-0.5c1,0,1.9,0.2,2.8,0.5s1.6,0.8,2.2,1.5s1.1,1.4,1.4,2.4
		C210.7,51,210.9,52.2,210.9,53.5z M207.4,51.8c0-0.5-0.1-0.9-0.2-1.3c-0.1-0.4-0.3-0.8-0.6-1.1c-0.3-0.3-0.6-0.6-1.1-0.8
		c-0.4-0.2-0.9-0.3-1.5-0.3c-1.1,0-2,0.3-2.7,1c-0.7,0.6-1.2,1.5-1.2,2.5H207.4z"/>
	<path class="st2" d="M223.1,58.6L223.1,58.6c-0.4,0.6-1,1.2-1.8,1.6s-1.7,0.6-2.7,0.6c-0.6,0-1.2-0.1-1.8-0.2
		c-0.6-0.1-1.2-0.4-1.7-0.7s-1-0.8-1.3-1.4s-0.5-1.3-0.5-2.1c0-1.1,0.3-1.9,0.9-2.6c0.6-0.6,1.4-1.1,2.3-1.5c1-0.3,2-0.6,3.2-0.7
		c1.2-0.1,2.3-0.2,3.4-0.2v-0.4c0-0.9-0.3-1.6-1-2c-0.6-0.4-1.4-0.6-2.3-0.6c-0.8,0-1.5,0.2-2.2,0.5c-0.7,0.3-1.3,0.7-1.7,1.2
		L214,48c0.8-0.8,1.8-1.3,2.8-1.7s2.1-0.6,3.2-0.6c1.3,0,2.3,0.2,3.1,0.5c0.8,0.4,1.5,0.8,1.9,1.4c0.5,0.6,0.8,1.2,1,1.9
		s0.3,1.4,0.3,2.1v8.7h-3.3V58.6z M223,53.9h-0.8c-0.6,0-1.2,0-1.8,0.1c-0.6,0-1.2,0.2-1.8,0.3c-0.5,0.2-1,0.4-1.3,0.7
		c-0.4,0.3-0.5,0.7-0.5,1.3c0,0.3,0.1,0.6,0.2,0.8c0.1,0.2,0.3,0.4,0.6,0.5c0.2,0.1,0.5,0.2,0.8,0.3c0.3,0.1,0.6,0.1,0.9,0.1
		c1.2,0,2.2-0.3,2.8-1c0.6-0.7,1-1.5,1-2.7V53.9z"/>
	<path class="st2" d="M240.3,50.1c-0.3-0.4-0.7-0.7-1.2-1c-0.6-0.3-1.1-0.4-1.7-0.4c-0.7,0-1.2,0.1-1.7,0.4
		c-0.5,0.3-0.9,0.6-1.2,1.1c-0.3,0.4-0.6,0.9-0.7,1.5c-0.2,0.5-0.2,1.1-0.2,1.7s0.1,1.1,0.3,1.7c0.2,0.5,0.4,1,0.8,1.5
		c0.3,0.4,0.8,0.8,1.3,1.1c0.5,0.3,1.1,0.4,1.8,0.4c0.6,0,1.1-0.1,1.7-0.3c0.6-0.2,1-0.5,1.3-1l2.2,2.3c-0.6,0.6-1.4,1.1-2.3,1.5
		c-0.9,0.3-1.9,0.5-3,0.5c-1.1,0-2-0.2-3-0.5c-0.9-0.3-1.8-0.8-2.5-1.5c-0.7-0.7-1.3-1.4-1.7-2.4s-0.6-2-0.6-3.2
		c0-1.1,0.2-2.2,0.6-3.1c0.4-0.9,1-1.7,1.7-2.4s1.5-1.2,2.4-1.5c0.9-0.4,1.9-0.5,3-0.5s2.1,0.2,3,0.6s1.8,0.9,2.3,1.6L240.3,50.1z"
		/>
	<path class="st2" d="M243,49v-2.9h2.5V42h3.5v4.1h3.6V49H249v6.6c0,0.6,0.1,1.2,0.3,1.6c0.2,0.4,0.7,0.6,1.5,0.6
		c0.2,0,0.5,0,0.8-0.1c0.3,0,0.5-0.1,0.7-0.2l0.1,2.8c-0.3,0.1-0.7,0.2-1.1,0.3c-0.4,0.1-0.9,0.1-1.2,0.1c-1,0-1.7-0.1-2.3-0.4
		s-1.1-0.6-1.4-1.1s-0.6-1-0.7-1.6c-0.1-0.6-0.2-1.3-0.2-1.9V49H243z"/>
	<path class="st2" d="M254.3,53.2c0-1.1,0.2-2.2,0.6-3.1s1-1.7,1.7-2.4s1.5-1.2,2.5-1.5c1-0.4,2-0.5,3-0.5c1.1,0,2.1,0.2,3,0.5
		c1,0.4,1.8,0.9,2.5,1.5c0.7,0.7,1.2,1.4,1.7,2.4s0.6,1.9,0.6,3.1s-0.2,2.2-0.6,3.1s-1,1.7-1.7,2.4c-0.7,0.7-1.5,1.2-2.5,1.6
		c-1,0.4-2,0.6-3,0.6c-1.1,0-2.1-0.2-3-0.6c-1-0.4-1.8-0.9-2.5-1.6s-1.2-1.5-1.7-2.4S254.3,54.3,254.3,53.2z M258,53.2
		c0,0.6,0.1,1.1,0.3,1.7c0.2,0.6,0.4,1.1,0.8,1.5c0.3,0.4,0.8,0.8,1.3,1.1c0.5,0.3,1.1,0.4,1.8,0.4c0.7,0,1.3-0.1,1.8-0.4
		c0.5-0.3,0.9-0.6,1.3-1.1c0.3-0.4,0.6-0.9,0.8-1.5c0.2-0.6,0.3-1.1,0.3-1.7s-0.1-1.1-0.3-1.7c-0.2-0.5-0.4-1-0.8-1.5
		c-0.3-0.4-0.8-0.8-1.3-1.1c-0.5-0.3-1.1-0.4-1.8-0.4c-0.7,0-1.3,0.1-1.8,0.4c-0.5,0.3-0.9,0.6-1.3,1.1c-0.3,0.4-0.6,0.9-0.8,1.5
		C258,52.1,258,52.7,258,53.2z"/>
	<path class="st2" d="M273.3,46.1h3.4v2.4h0.1c0.4-0.8,1-1.5,1.7-2c0.7-0.5,1.5-0.8,2.5-0.8c0.1,0,0.3,0,0.4,0c0.2,0,0.3,0,0.4,0.1
		v3.3c-0.2-0.1-0.4-0.1-0.6-0.1c-0.2,0-0.3,0-0.5,0c-0.8,0-1.5,0.1-2,0.4c-0.5,0.3-0.9,0.7-1.2,1.1c-0.3,0.4-0.5,0.8-0.6,1.3
		c-0.1,0.4-0.1,0.8-0.1,1v7.6h-3.6V46.1z"/>
</g>
<g>
	<circle class="st2" cx="43.9" cy="48.6" r="11.9"/>
</g>
<g>
	<path class="st2" d="M43.9,69.2c-11.4,0-20.6-9.2-20.6-20.6S32.5,28,43.9,28s20.6,9.2,20.6,20.6S55.3,69.2,43.9,69.2z M43.9,30.5
		c-10,0-18.1,8.1-18.1,18.1s8.1,18.1,18.1,18.1S62,58.6,62,48.6S53.9,30.5,43.9,30.5z"/>
</g>
</svg>
